<?xml version="1.0" standalone="no"?>
<!DOCTYPE svg PUBLIC "-//W3C//DTD SVG 1.1//EN" "http://www.w3.org/Graphics/SVG/1.1/DTD/svg11.dtd"><svg t="1718694894934"
  class="icon" viewBox="0 0 1024 1024" version="1.1" xmlns="http://www.w3.org/2000/svg" p-id="10649" width="32"
  height="32" xmlns:xlink="http://www.w3.org/1999/xlink">
  <path
    d="M619.52 97.28l102.4 312.32 66.56-204.8 66.56 204.8-51.2-25.6-10.24 15.36 81.92 76.8 20.48 66.56-51.2-25.6-10.24 10.24 81.92 76.8 25.6 71.68h-122.88v61.44c102.4 40.96 174.08 102.4 179.2 189.44h-430.08c-30.72-71.68-71.68-133.12-148.48-179.2 15.36-20.48 40.96-40.96 61.44-56.32h92.16v-46.08H435.2l30.72-81.92 97.28-92.16-10.24-15.36-61.44 30.72 25.6-76.8 97.28-87.04-15.36-15.36-61.44 25.6 81.92-235.52z m35.84 578.56v20.48c35.84 5.12 71.68 10.24 107.52 20.48v-40.96h-107.52zM435.2 926.72c5.12-46.08-5.12-92.16-35.84-148.48-25.6 40.96-35.84 92.16-40.96 148.48H435.2z m-271.36 0H35.84c0-71.68 51.2-128 122.88-163.84V665.6H25.6l25.6-87.04 102.4-92.16-10.24-10.24-61.44 25.6 25.6-76.8 97.28-92.16-15.36-15.36-56.32 30.72L209.92 102.4l92.16 281.6 10.24 25.6-51.2-25.6-15.36 15.36L332.8 481.28l30.72 87.04-66.56-30.72-15.36 15.36 107.52 102.4 5.12 10.24H256v56.32c40.96-15.36 92.16-20.48 138.24-30.72-117.76 51.2-184.32 138.24-230.4 235.52z"
    p-id="10650" fill="#52c41a"></path>
</svg>
